<svg width="220" height="199" viewBox="0 0 220 199" fill="none" xmlns="http://www.w3.org/2000/svg">
<path d="M220 89C220 107.821 215.171 126.327 205.975 142.748C196.778 159.17 183.522 172.956 167.475 182.79C151.427 192.624 133.125 198.176 114.319 198.915C95.5121 199.654 76.8306 195.555 60.061 187.011C43.2914 178.466 28.9947 165.762 18.5383 150.113C8.08197 134.464 1.81576 116.393 0.339092 97.6305C-1.13758 78.8675 2.22468 60.0395 10.1043 42.9474C17.9838 25.8553 30.1172 11.0708 45.3436 0.00811577L69.2665 32.9351C59.6738 39.9046 52.0298 49.2188 47.0657 59.9869C42.1015 70.7549 39.9833 82.6166 40.9136 94.4372C41.8439 106.258 45.7916 117.642 52.3791 127.501C58.9667 137.36 67.9736 145.364 78.5385 150.747C89.1033 156.13 100.873 158.712 112.721 158.247C124.569 157.781 136.099 154.283 146.209 148.088C156.319 141.893 164.67 133.207 170.464 122.861C176.258 112.516 179.3 100.857 179.3 89H220Z" fill="#C2A94B"/>
</svg>
