<svg width="61" height="76" viewBox="0 0 61 76" fill="none" xmlns="http://www.w3.org/2000/svg">
<path d="M30.4691 1.0457C19.9869 5.78644 13.3383 8.24456 1.01997 12.3962C0.531927 48.5481 8.95051 60.4154 30.4691 74.9533C30.4711 75.0112 30.7854 75.0198 30.7839 74.9533C52.3025 60.4154 60.721 48.5481 60.233 12.3962C47.9147 8.24456 41.266 5.78644 30.7839 1.0457C30.7769 0.9799 30.4762 0.989835 30.4691 1.0457Z" stroke="black"/>
<path d="M30.6373 8.67964C22.1918 12.4798 16.835 14.4502 6.91013 17.778C6.51692 46.757 13.2998 56.2697 30.6373 67.9231C30.642 67.9622 30.8909 67.9621 30.8909 67.9231C48.2284 56.2697 55.0113 46.757 54.6181 17.778C44.6932 14.4502 39.3364 12.4798 30.8909 8.67964C30.8909 8.54103 30.6373 8.54103 30.6373 8.67964Z" stroke="black"/>
<path d="M11.0195 46.8755L39.6047 12.3965C45.438 14.7712 48.204 15.7022 54.3393 17.7009L22.8072 62.1994C16.2271 56.569 13.6844 53.1931 11.0195 46.8755Z" fill="#C2A94B" stroke="black"/>
</svg>
