<svg width="72" height="75" viewBox="0 0 72 75" fill="none" xmlns="http://www.w3.org/2000/svg">
<path d="M35.6862 1L15.6277 5.27477V24.3468C15.6277 34.5405 27.4655 50.653 35.6862 50.653C43.9069 50.653 56.4024 35.527 56.4024 24.3468V5.27477L35.6862 1Z" stroke="black"/>
<path d="M35.7708 6.26123L20.8887 9.43283V23.583C20.8887 31.1461 29.6716 43.1006 35.7708 43.1006C41.87 43.1006 51.1409 31.878 51.1409 23.583V9.43283L35.7708 6.26123Z" fill="#C2A94B" stroke="black"/>
<path d="M27.4653 23.0314L32.7266 28.2927L44.8932 16.7837" stroke="black"/>
<path d="M29.7671 73.9999V62.8197C29.7668 59.2776 29.2767 57.4674 27.4653 54.599L20.5599 45.7206C16.9427 42.1034 11.9282 45.7206 15.6275 50.6531M15.6275 50.6531L10.6951 44.0765V27.6351C10.6951 22.7024 3.78974 22.3736 3.13206 27.6351L1.15909 44.0765C0.487943 48.3035 1.92494 50.5873 5.76268 54.599L12.6681 62.8197C15.9326 66.5775 16.8126 69.0198 16.614 73.9999M15.6275 50.6531L18.587 54.599" stroke="black"/>
<path d="M41.7746 73.9999V62.8197C41.7749 59.2776 42.265 57.4674 44.0764 54.599L50.9818 45.7206C54.5991 42.1034 59.6135 45.7206 55.9142 50.6531M55.9142 50.6531L60.8466 44.0765V27.6351C60.8466 22.7024 67.752 22.3736 68.4097 27.6351L70.3827 44.0765C71.0538 48.3035 69.6168 50.5873 65.7791 54.599L58.8737 62.8197C55.6091 66.5775 54.7291 69.0198 54.9277 73.9999M55.9142 50.6531L52.9547 54.599" stroke="black"/>
</svg>
