<svg width="65" height="58" viewBox="0 0 65 58" fill="none" xmlns="http://www.w3.org/2000/svg">
<path d="M64.1272 56.4835C64.3943 56.4133 64.5538 56.1398 64.4835 55.8728L63.3383 51.5209C63.268 51.2539 62.9946 51.0944 62.7275 51.1646C62.4605 51.2349 62.301 51.5084 62.3712 51.7754L63.3892 55.6437L59.5209 56.6617C59.2539 56.732 59.0944 57.0054 59.1646 57.2725C59.2349 57.5395 59.5084 57.699 59.7754 57.6288L64.1272 56.4835ZM51.7481 49.4319L63.7481 56.4319L64.2519 55.5681L52.2519 48.5681L51.7481 49.4319Z" fill="#0E4737"/>
<path d="M0.872753 56.4835C0.605703 56.4133 0.446186 56.1398 0.516463 55.8728L1.66168 51.5209C1.73196 51.2539 2.00542 51.0944 2.27247 51.1646C2.53952 51.2349 2.69903 51.5084 2.62876 51.7754L1.61078 55.6437L5.47908 56.6617C5.74613 56.732 5.90565 57.0054 5.83537 57.2725C5.7651 57.5395 5.49164 57.699 5.22459 57.6288L0.872753 56.4835ZM13.2519 49.4319L1.25194 56.4319L0.748064 55.5681L12.7481 48.5681L13.2519 49.4319Z" fill="#0E4737"/>
<path d="M32.6455 0.645883C32.8407 0.450621 33.1573 0.45062 33.3526 0.645883L36.5346 3.82786C36.7298 4.02313 36.7298 4.33971 36.5346 4.53497C36.3393 4.73023 36.0227 4.73023 35.8275 4.53497L32.999 1.70654L30.1706 4.53497C29.9753 4.73023 29.6588 4.73023 29.4635 4.53497C29.2682 4.33971 29.2682 4.02313 29.4635 3.82786L32.6455 0.645883ZM33.499 0.999436L33.499 16L32.499 16L32.499 0.999436L33.499 0.999436Z" fill="#0E4737"/>
<path d="M18.9995 30L32.9995 22L46.9995 30V46L32.9995 54L18.9995 46V30Z" fill="#C2A94B"/>
<path d="M18.9995 30L32.9995 22L46.9995 30M18.9995 30V46L32.9995 54M18.9995 30L32.9995 38M32.9995 54L46.9995 46V30M32.9995 54V38M32.9995 38L39.9995 34L46.9995 30" stroke="#0E4737"/>
</svg>
