<svg width="62" height="59" viewBox="0 0 62 59" fill="none" xmlns="http://www.w3.org/2000/svg">
<path d="M15 9L29 1L43 9M15 9V25L29 33M15 9L29 17M43 9V25L42 25.5M43 9L29 17M29 17V32" stroke="#0E4737"/>
<circle cx="41" cy="39.5" r="11" fill="#C2A94B" stroke="#0E4737"/>
<path d="M15 25L29 33" stroke="#0E4737"/>
<path d="M32.5 47L43 41M43 41V28.5M43 41L31 34" stroke="#0E4737" stroke-dasharray="2 2"/>
<path d="M15 25L1 33M1 33V49L15 57M1 33L15 41M15 57L29 49V47M15 57V41M15 41L22 37L29 33" stroke="#0E4737"/>
<circle cx="41" cy="39.5" r="14" stroke="#0E4737"/>
<path d="M59.8535 54.6465L52.8535 47.6465L50 50.5L57 57.5C58.5 59 61.5 56.293 59.8535 54.6465Z" stroke="#0E4737"/>
</svg>
