<svg width="62" height="74" viewBox="0 0 62 74" fill="none" xmlns="http://www.w3.org/2000/svg">
<path d="M11.4802 6.78223H5.33663C1.87185 6.95759 1.07877 8.0412 1 11.1189C1 24.1495 4.06486 30.5824 15.8168 37.8614" stroke="black"/>
<path d="M11.48 1V22.3218C11.48 34.2475 19.0252 45.4734 30.9948 49.4257C42.9644 45.4734 50.5097 34.2475 50.5097 22.3218V1H11.48Z" stroke="black"/>
<path d="M50.51 6.78223H56.6536C60.1184 6.95759 60.9115 8.0412 60.9902 11.1189C60.9902 24.1495 57.9254 30.5824 46.1734 37.8614" stroke="black"/>
<path d="M50.5101 9.67334H54.5646C57.0999 9.80384 57.6802 10.6102 57.7378 12.9006C57.7378 21.8799 55.815 26.6494 48.7031 31.6071" stroke="black"/>
<path d="M11.4802 9.67334H7.42559C4.89038 9.80384 4.31008 10.6102 4.25244 12.9006C4.25244 21.8799 6.17527 26.6494 13.2871 31.6071" stroke="black"/>
<path d="M12.0565 73.4998L14.8047 54.2622H47.1849L49.9332 73.4998H12.0565Z" stroke="black"/>
<path d="M25.2129 46.5347V53.7624" stroke="black"/>
<path d="M37.5 46.5347V53.7624" stroke="black"/>
<path d="M30.5801 8.57045C30.7771 8.26573 31.2229 8.26573 31.4199 8.57046L31.8398 8.299L31.4199 8.57046L35.8439 15.4135C36.0463 15.7266 36.358 15.9531 36.7183 16.0489L44.5936 18.1417C44.9442 18.2349 45.082 18.6588 44.8531 18.9404L39.712 25.2625C39.4768 25.5517 39.3577 25.9182 39.378 26.2904L39.8212 34.4269C39.8409 34.7893 39.4803 35.0513 39.1418 34.9206L31.5404 31.9847C31.1927 31.8504 30.8073 31.8504 30.4596 31.9847L22.8582 34.9206C22.5197 35.0513 22.1591 34.7893 22.1788 34.4269L22.622 26.2904C22.6423 25.9182 22.5232 25.5517 22.288 25.2625L17.1469 18.9404C16.918 18.6588 17.0558 18.2349 17.4064 18.1417L25.2817 16.0489C25.642 15.9531 25.9537 15.7266 26.1561 15.4135L30.5801 8.57045Z" fill="#C2A94B" stroke="black"/>
</svg>
