<svg width="226" height="38" viewBox="0 0 226 38" fill="none" xmlns="http://www.w3.org/2000/svg">
<path d="M47.5776 25.3678H43.4033L37.6667 8.23958H41.3283L45.5026 21.4039L49.6525 8.23958H53.3386L47.5776 25.3678Z" fill="white"/>
<path d="M67.9966 25.3678H64.3593L60.9173 19.4219H58.3542V25.3678H54.9854V8.23958H61.8206C63.3991 8.23958 64.7418 8.79421 65.8484 9.90346C66.955 11.0127 67.5084 12.3504 67.5084 13.9164C67.5084 14.9767 67.2073 15.9636 66.6051 16.8771C66.003 17.7743 65.2056 18.4513 64.2129 18.908L67.9966 25.3678ZM61.8206 11.3961H58.3542V16.4611H61.8206C62.4552 16.4611 63.0004 16.2164 63.4561 15.7271C63.9118 15.2214 64.1396 14.6178 64.1396 13.9164C64.1396 13.2149 63.9118 12.6195 63.4561 12.1301C63.0004 11.6408 62.4552 11.3961 61.8206 11.3961Z" fill="white"/>
<path d="M89.3382 8.23958H92.8046V25.3678H89.4603V14.2589L84.6513 22.2113H84.2607L79.4517 14.2834V25.3678H76.083V8.23958H79.5494L84.456 16.3388L89.3382 8.23958Z" fill="white"/>
<path d="M105.118 14.577V13.1334H108.267V25.3678H105.118V23.9241C104.174 25.115 102.848 25.7104 101.139 25.7104C99.5119 25.7104 98.1123 25.0905 96.9406 23.8507C95.7851 22.5947 95.2074 21.0613 95.2074 19.2506C95.2074 17.4562 95.7851 15.931 96.9406 14.6749C98.1123 13.4188 99.5119 12.7908 101.139 12.7908C102.848 12.7908 104.174 13.3862 105.118 14.577ZM99.3085 21.7464C99.9432 22.3826 100.749 22.7007 101.725 22.7007C102.702 22.7007 103.507 22.3826 104.142 21.7464C104.793 21.0939 105.118 20.262 105.118 19.2506C105.118 18.2392 104.793 17.4154 104.142 16.7792C103.507 16.1267 102.702 15.8005 101.725 15.8005C100.749 15.8005 99.9432 16.1267 99.3085 16.7792C98.6738 17.4154 98.3565 18.2392 98.3565 19.2506C98.3565 20.262 98.6738 21.0939 99.3085 21.7464Z" fill="white"/>
<path d="M117.909 12.7908C119.26 12.7908 120.358 13.2394 121.205 14.1366C122.084 15.0501 122.523 16.2898 122.523 17.8559V25.3678H119.374V18.2474C119.374 17.448 119.154 16.8282 118.715 16.3877C118.292 15.9473 117.706 15.7271 116.957 15.7271C116.127 15.7271 115.468 15.9881 114.98 16.5101C114.508 17.0158 114.272 17.7661 114.272 18.7612V25.3678H111.123V13.1334H114.272V14.5036C115.021 13.3617 116.233 12.7908 117.909 12.7908Z" fill="white"/>
<path d="M134.488 14.577V13.1334H137.637V25.3678H134.488V23.9241C133.544 25.115 132.218 25.7104 130.509 25.7104C128.882 25.7104 127.482 25.0905 126.31 23.8507C125.155 22.5947 124.577 21.0613 124.577 19.2506C124.577 17.4562 125.155 15.931 126.31 14.6749C127.482 13.4188 128.882 12.7908 130.509 12.7908C132.218 12.7908 133.544 13.3862 134.488 14.577ZM128.678 21.7464C129.313 22.3826 130.118 22.7007 131.095 22.7007C132.071 22.7007 132.877 22.3826 133.512 21.7464C134.163 21.0939 134.488 20.262 134.488 19.2506C134.488 18.2392 134.163 17.4154 133.512 16.7792C132.877 16.1267 132.071 15.8005 131.095 15.8005C130.118 15.8005 129.313 16.1267 128.678 16.7792C128.043 17.4154 127.726 18.2392 127.726 19.2506C127.726 20.262 128.043 21.0939 128.678 21.7464Z" fill="white"/>
<path d="M149.842 14.6504V13.1334H152.918V24.7806C152.918 26.6565 152.291 28.1002 151.038 29.1116C149.801 30.1066 148.304 30.6042 146.547 30.6042C143.78 30.6042 141.852 29.6091 140.761 27.619L143.446 26.0774C144.049 27.2193 145.114 27.7902 146.644 27.7902C147.637 27.7902 148.418 27.5292 148.988 27.0072C149.557 26.4852 149.842 25.743 149.842 24.7806V23.4592C148.914 24.699 147.613 25.3189 145.936 25.3189C144.211 25.3189 142.763 24.7153 141.591 23.5082C140.436 22.2684 139.858 20.784 139.858 19.0548C139.858 17.3257 140.444 15.8494 141.616 14.626C142.787 13.4025 144.228 12.7908 145.936 12.7908C147.613 12.7908 148.914 13.4107 149.842 14.6504ZM148.866 21.4773C149.517 20.8411 149.842 20.0336 149.842 19.0548C149.842 18.0761 149.517 17.2849 148.866 16.6814C148.231 16.0452 147.417 15.7271 146.425 15.7271C145.448 15.7271 144.626 16.0452 143.959 16.6814C143.324 17.2849 143.007 18.0761 143.007 19.0548C143.007 20.0336 143.324 20.8411 143.959 21.4773C144.61 22.0971 145.432 22.4071 146.425 22.4071C147.417 22.4071 148.231 22.0971 148.866 21.4773Z" fill="white"/>
<path d="M167.637 20.5474H158.434C158.841 22.0808 159.988 22.8475 161.876 22.8475C163.081 22.8475 163.992 22.4397 164.61 21.6241L167.149 23.0922C165.945 24.8377 164.171 25.7104 161.827 25.7104C159.809 25.7104 158.19 25.0987 156.97 23.8752C155.749 22.6518 155.139 21.1102 155.139 19.2506C155.139 17.4236 155.741 15.8902 156.945 14.6504C158.133 13.4107 159.679 12.7908 161.583 12.7908C163.39 12.7908 164.863 13.4107 166.002 14.6504C167.173 15.8902 167.759 17.4236 167.759 19.2506C167.759 19.5932 167.719 20.0254 167.637 20.5474ZM158.385 18.1005H164.61C164.431 17.3012 164.065 16.6895 163.512 16.2654C162.975 15.8413 162.332 15.6292 161.583 15.6292C160.737 15.6292 160.037 15.8494 159.484 16.2898C158.931 16.714 158.564 17.3175 158.385 18.1005Z" fill="white"/>
<path d="M183.457 12.7908C184.857 12.7908 185.971 13.2475 186.801 14.1611C187.648 15.0746 188.071 16.298 188.071 17.8314V25.3678H184.922V18.0516C184.922 17.3175 184.743 16.7466 184.385 16.3388C184.027 15.931 183.522 15.7271 182.871 15.7271C182.155 15.7271 181.594 15.9636 181.187 16.4367C180.796 16.9097 180.601 17.5949 180.601 18.4921V25.3678H177.452V18.0516C177.452 17.3175 177.273 16.7466 176.915 16.3388C176.557 15.931 176.052 15.7271 175.401 15.7271C174.702 15.7271 174.14 15.9718 173.717 16.4611C173.31 16.9342 173.107 17.6112 173.107 18.4921V25.3678H169.958V13.1334H173.107V14.4302C173.839 13.3373 174.97 12.7908 176.5 12.7908C178.013 12.7908 179.12 13.378 179.82 14.5526C180.617 13.378 181.83 12.7908 183.457 12.7908Z" fill="white"/>
<path d="M202.609 20.5474H193.406C193.813 22.0808 194.96 22.8475 196.848 22.8475C198.052 22.8475 198.964 22.4397 199.582 21.6241L202.121 23.0922C200.917 24.8377 199.143 25.7104 196.799 25.7104C194.781 25.7104 193.162 25.0987 191.941 23.8752C190.721 22.6518 190.111 21.1102 190.111 19.2506C190.111 17.4236 190.713 15.8902 191.917 14.6504C193.105 13.4107 194.651 12.7908 196.555 12.7908C198.362 12.7908 199.834 13.4107 200.974 14.6504C202.145 15.8902 202.731 17.4236 202.731 19.2506C202.731 19.5932 202.691 20.0254 202.609 20.5474ZM193.357 18.1005H199.582C199.403 17.3012 199.037 16.6895 198.484 16.2654C197.947 15.8413 197.304 15.6292 196.555 15.6292C195.709 15.6292 195.009 15.8494 194.456 16.2898C193.902 16.714 193.536 17.3175 193.357 18.1005Z" fill="white"/>
<path d="M211.716 12.7908C213.067 12.7908 214.165 13.2394 215.011 14.1366C215.89 15.0501 216.33 16.2898 216.33 17.8559V25.3678H213.18V18.2474C213.18 17.448 212.961 16.8282 212.521 16.3877C212.098 15.9473 211.512 15.7271 210.764 15.7271C209.934 15.7271 209.275 15.9881 208.786 16.5101C208.315 17.0158 208.079 17.7661 208.079 18.7612V25.3678H204.93V13.1334H208.079V14.5036C208.827 13.3617 210.04 12.7908 211.716 12.7908Z" fill="white"/>
<path d="M226 13.1334V16.1675H223.242V21.257C223.242 21.6812 223.347 21.9911 223.559 22.1869C223.77 22.3826 224.08 22.4968 224.486 22.5294C224.893 22.5457 225.398 22.5376 226 22.505V25.3678C223.868 25.6125 222.346 25.4167 221.435 24.7806C220.54 24.1281 220.092 22.9535 220.092 21.257V16.1675H217.969V13.1334H220.092V10.662L223.242 9.70771V13.1334H226Z" fill="white"/>
<path fill-rule="evenodd" clip-rule="evenodd" d="M2.94271 0H30.0156V37.5195H2.94271L0 35.4596V2.20703L2.94271 0ZM3.08984 0.735679L24.1302 4.70834V33.3997L3.08984 36.931V0.735679Z" fill="white"/>
</svg>
