<svg width="220" height="123" viewBox="0 0 220 123" fill="none" xmlns="http://www.w3.org/2000/svg">
<path d="M11.5774 116.818H6.70119L0 97.178H4.27736L9.15354 112.273L14.0012 97.178H18.3071L11.5774 116.818Z" fill="white"/>
<path d="M35.4296 116.818H31.1808L27.1601 110H24.1659V116.818H20.2308V97.178H28.2152C30.0592 97.178 31.6276 97.8139 32.9203 99.0859C34.213 100.358 34.8593 101.892 34.8593 103.687C34.8593 104.903 34.5076 106.035 33.8043 107.082C33.1009 108.111 32.1693 108.887 31.0097 109.411L35.4296 116.818ZM28.2152 100.797H24.1659V106.605H28.2152C28.9566 106.605 29.5934 106.325 30.1257 105.763C30.658 105.184 30.9242 104.492 30.9242 103.687C30.9242 102.883 30.658 102.2 30.1257 101.639C29.5934 101.078 28.9566 100.797 28.2152 100.797Z" fill="white"/>
<path d="M60.3597 97.178H64.409V116.818H60.5023V104.08L54.8847 113.199H54.4285L48.8109 104.108V116.818H44.8757V97.178H48.9249L54.6566 106.465L60.3597 97.178Z" fill="white"/>
<path d="M78.7931 104.445V102.789H82.4716V116.818H78.7931V115.163C77.6905 116.528 76.1412 117.211 74.1451 117.211C72.244 117.211 70.6091 116.5 69.2404 115.078C67.8906 113.638 67.2157 111.88 67.2157 109.804C67.2157 107.746 67.8906 105.997 69.2404 104.557C70.6091 103.117 72.244 102.397 74.1451 102.397C76.1412 102.397 77.6905 103.079 78.7931 104.445ZM72.0064 112.665C72.7478 113.395 73.6888 113.76 74.8294 113.76C75.9701 113.76 76.9111 113.395 77.6525 112.665C78.4129 111.917 78.7931 110.963 78.7931 109.804C78.7931 108.644 78.4129 107.699 77.6525 106.97C76.9111 106.222 75.9701 105.848 74.8294 105.848C73.6888 105.848 72.7478 106.222 72.0064 106.97C71.265 107.699 70.8943 108.644 70.8943 109.804C70.8943 110.963 71.265 111.917 72.0064 112.665Z" fill="white"/>
<path d="M93.7347 102.397C95.3125 102.397 96.5958 102.911 97.5843 103.94C98.6109 104.987 99.1242 106.409 99.1242 108.204V116.818H95.4456V108.653C95.4456 107.737 95.189 107.026 94.6757 106.521C94.1814 106.016 93.497 105.763 92.6226 105.763C91.653 105.763 90.8831 106.063 90.3128 106.661C89.7615 107.241 89.4858 108.102 89.4858 109.243V116.818H85.8073V102.789H89.4858V104.361C90.3603 103.051 91.7766 102.397 93.7347 102.397Z" fill="white"/>
<path d="M113.101 104.445V102.789H116.78V116.818H113.101V115.163C111.998 116.528 110.449 117.211 108.453 117.211C106.552 117.211 104.917 116.5 103.548 115.078C102.199 113.638 101.524 111.88 101.524 109.804C101.524 107.746 102.199 105.997 103.548 104.557C104.917 103.117 106.552 102.397 108.453 102.397C110.449 102.397 111.998 103.079 113.101 104.445ZM106.314 112.665C107.056 113.395 107.997 113.76 109.137 113.76C110.278 113.76 111.219 113.395 111.96 112.665C112.721 111.917 113.101 110.963 113.101 109.804C113.101 108.644 112.721 107.699 111.96 106.97C111.219 106.222 110.278 105.848 109.137 105.848C107.997 105.848 107.056 106.222 106.314 106.97C105.573 107.699 105.202 108.644 105.202 109.804C105.202 110.963 105.573 111.917 106.314 112.665Z" fill="white"/>
<path d="M131.037 104.529V102.789H134.63V116.145C134.63 118.296 133.898 119.951 132.434 121.111C130.989 122.252 129.24 122.822 127.187 122.822C123.955 122.822 121.703 121.681 120.429 119.399L123.566 117.632C124.269 118.941 125.514 119.596 127.301 119.596C128.461 119.596 129.373 119.296 130.039 118.698C130.704 118.099 131.037 117.248 131.037 116.145V114.629C129.953 116.051 128.432 116.762 126.474 116.762C124.459 116.762 122.767 116.07 121.398 114.686C120.049 113.264 119.374 111.562 119.374 109.579C119.374 107.597 120.058 105.904 121.427 104.501C122.796 103.098 124.478 102.397 126.474 102.397C128.432 102.397 129.953 103.107 131.037 104.529ZM129.896 112.357C130.657 111.627 131.037 110.701 131.037 109.579C131.037 108.457 130.657 107.55 129.896 106.858C129.155 106.128 128.204 105.763 127.045 105.763C125.904 105.763 124.944 106.128 124.164 106.858C123.423 107.55 123.052 108.457 123.052 109.579C123.052 110.701 123.423 111.627 124.164 112.357C124.925 113.068 125.885 113.423 127.045 113.423C128.204 113.423 129.155 113.068 129.896 112.357Z" fill="white"/>
<path d="M151.824 111.291H141.074C141.549 113.049 142.889 113.928 145.094 113.928C146.501 113.928 147.566 113.46 148.288 112.525L151.254 114.209C149.847 116.21 147.775 117.211 145.037 117.211C142.68 117.211 140.788 116.509 139.363 115.106C137.937 113.704 137.224 111.936 137.224 109.804C137.224 107.709 137.927 105.95 139.334 104.529C140.722 103.107 142.528 102.397 144.752 102.397C146.862 102.397 148.583 103.107 149.914 104.529C151.282 105.95 151.967 107.709 151.967 109.804C151.967 110.196 151.919 110.692 151.824 111.291ZM141.017 108.485H148.288C148.079 107.568 147.651 106.867 147.005 106.381C146.378 105.894 145.627 105.651 144.752 105.651C143.764 105.651 142.946 105.904 142.3 106.409C141.653 106.895 141.226 107.587 141.017 108.485Z" fill="white"/>
<path d="M170.304 102.397C171.939 102.397 173.241 102.92 174.21 103.968C175.199 105.015 175.693 106.418 175.693 108.176V116.818H172.015V108.429C172.015 107.587 171.806 106.932 171.387 106.465C170.969 105.997 170.38 105.763 169.619 105.763C168.783 105.763 168.127 106.035 167.652 106.577C167.196 107.12 166.967 107.905 166.967 108.934V116.818H163.289V108.429C163.289 107.587 163.08 106.932 162.662 106.465C162.243 105.997 161.654 105.763 160.894 105.763C160.076 105.763 159.42 106.044 158.926 106.605C158.451 107.148 158.213 107.924 158.213 108.934V116.818H154.535V102.789H158.213V104.276C159.069 103.023 160.39 102.397 162.177 102.397C163.945 102.397 165.238 103.07 166.055 104.417C166.986 103.07 168.403 102.397 170.304 102.397Z" fill="white"/>
<path d="M192.676 111.291H181.926C182.401 113.049 183.741 113.928 185.946 113.928C187.353 113.928 188.418 113.46 189.14 112.525L192.106 114.209C190.699 116.21 188.627 117.211 185.889 117.211C183.532 117.211 181.641 116.509 180.215 115.106C178.789 113.704 178.076 111.936 178.076 109.804C178.076 107.709 178.78 105.95 180.186 104.529C181.574 103.107 183.38 102.397 185.604 102.397C187.714 102.397 189.435 103.107 190.766 104.529C192.134 105.95 192.819 107.709 192.819 109.804C192.819 110.196 192.771 110.692 192.676 111.291ZM181.869 108.485H189.14C188.931 107.568 188.503 106.867 187.857 106.381C187.23 105.894 186.479 105.651 185.604 105.651C184.616 105.651 183.798 105.904 183.152 106.409C182.506 106.895 182.078 107.587 181.869 108.485Z" fill="white"/>
<path d="M203.314 102.397C204.892 102.397 206.175 102.911 207.164 103.94C208.19 104.987 208.704 106.409 208.704 108.204V116.818H205.025V108.653C205.025 107.737 204.768 107.026 204.255 106.521C203.761 106.016 203.076 105.763 202.202 105.763C201.232 105.763 200.462 106.063 199.892 106.661C199.341 107.241 199.065 108.102 199.065 109.243V116.818H195.387V102.789H199.065V104.361C199.94 103.051 201.356 102.397 203.314 102.397Z" fill="white"/>
<path d="M220 102.789V106.268H216.778V112.104C216.778 112.591 216.901 112.946 217.148 113.171C217.396 113.395 217.757 113.526 218.232 113.563C218.707 113.582 219.297 113.573 220 113.535V116.818C217.51 117.099 215.732 116.874 214.668 116.145C213.622 115.396 213.099 114.05 213.099 112.104V106.268H210.618V102.789H213.099V99.9556L216.778 98.8614V102.789H220Z" fill="white"/>
<path fill-rule="evenodd" clip-rule="evenodd" d="M87.7565 0H137.669V69.1718H87.7565L82.3313 65.3741V4.06893L87.7565 0ZM88.0278 1.35645L126.818 8.68052V61.5766L88.0278 68.0869V1.35645Z" fill="white"/>
</svg>
