<svg width="79" height="75" viewBox="0 0 79 75" fill="none" xmlns="http://www.w3.org/2000/svg">
<path d="M59.5593 45.9793C63.8923 50.2656 72.1644 43.4464 66.2558 38.5756L41.6364 18.1182L33.7582 26.6908C27.8495 32.5358 22.9002 34.1792 17.8048 28.6392L39.4699 5.84378C31.3948 -2.1443 15.8352 0.388609 7.36617 8.76627C-1.49685 17.5338 -1.6937 32.1463 10.5175 44.2258C6.38139 48.3172 13.4718 56.3054 17.2139 52.6036C14.0626 55.7209 21.35 63.1245 24.8952 59.6175C21.5469 62.9297 29.6221 70.1385 32.9704 66.8263C30.016 69.7488 37.8942 76.1783 40.8486 73.2558L46.9542 66.8263L48.1359 64.2935C54.8324 66.047 59.5593 60.3969 52.4689 53.3829M59.5593 45.9793C67.6345 53.9674 59.5593 60.3969 52.4689 53.3829M59.5593 45.9793L42.2273 30.3928M52.4689 53.3829L35.1369 37.9912" stroke="black"/>
<path d="M48.2752 64.4728L47.0975 66.9588L41.0125 73.2695C38.0682 76.138 30.2166 69.8273 33.161 66.9588C29.8241 70.2098 21.7762 63.1341 25.1131 59.8831C21.5799 63.3253 14.3172 56.0584 17.4579 52.9987C13.7284 56.6322 6.66196 48.7915 10.784 44.7756L14.9062 40.7598C18.4394 37.3175 24.917 44.7756 21.9726 47.6442L25.8983 43.8195C28.4502 41.3334 37.2831 46.8792 33.161 50.8951C37.4793 46.688 45.3309 54.3373 41.0125 58.5445C44.3495 55.2935 49.2567 61.2218 48.2752 64.4728Z" fill="#C2A94B"/>
<path d="M33.161 66.9588C30.2166 69.8273 38.0682 76.138 41.0125 73.2695L47.0975 66.9588L48.2752 64.4728C49.2567 61.2218 44.3495 55.2935 41.0125 58.5445M33.161 66.9588C29.8241 70.2098 21.7762 63.1341 25.1131 59.8831M33.161 66.9588L41.0125 58.5445M25.1131 59.8831C21.5799 63.3253 14.3172 56.0584 17.4579 52.9987M25.1131 59.8831L33.161 50.8951M17.4579 52.9987C13.7284 56.6322 6.66196 48.7915 10.784 44.7756L14.9062 40.7598C18.4394 37.3175 24.917 44.7756 21.9726 47.6442M17.4579 52.9987L21.9726 47.6442M21.9726 47.6442L25.8983 43.8195C28.4502 41.3334 37.2831 46.8792 33.161 50.8951M33.161 50.8951C37.4793 46.688 45.3309 54.3373 41.0125 58.5445" stroke="black"/>
<path d="M69.6158 7.15035C60.8341 -0.627273 46.0946 -0.890989 39.6262 5.58126L18.0649 28.5283C23.4958 33.7628 27.0402 32.7973 33.9418 26.5671L41.7822 17.9374L66.2836 38.5309C72.1639 43.4341 63.9314 50.2987 59.6192 45.9838L62.7555 50.2987L71.968 40.8845C80.5924 32.2548 79.4987 15.9031 69.6158 7.15035Z" fill="#C2A94B" stroke="black"/>
</svg>
