<svg width="53" height="75" viewBox="0 0 53 75" fill="none" xmlns="http://www.w3.org/2000/svg">
<path d="M12.3168 20.9568L27.259 6.70195L9.47062 1L5.20142 6.70195L12.3168 20.9568Z" stroke="black"/>
<path d="M41.4389 20.9568L26.4967 6.70195L44.285 1L48.5542 6.70195L41.4389 20.9568Z" stroke="black"/>
<path d="M12.1281 21.2084L26.7338 7.30225L41.3395 21.2084L44.817 14.9506L52.4676 23.2943C52.4676 49.8418 45.1151 51.4174 26.2086 74.0001C7.82734 51.4174 1 49.8418 1 23.2943L9.40288 15.1799L12.1281 21.2084Z" stroke="black"/>
<path d="M23.5826 22.5325L17.8057 15.7051L26.7337 7.30225L35.6618 15.7051L28.8344 22.5325H23.5826Z" fill="#C2A94B" stroke="black"/>
<path d="M36.7123 61.921L26.2087 74.0001L15.7051 61.921L23.5828 22.5325H28.3094L36.7123 61.921Z" fill="#C2A94B" stroke="black"/>
</svg>
