<svg width="77" height="80" viewBox="0 0 77 80" fill="none" xmlns="http://www.w3.org/2000/svg">
<path d="M0 79H76.2049" stroke="black"/>
<rect x="2.28052" y="68.4609" width="20.3659" height="6.83415" rx="1.5" stroke="black"/>
<rect x="26.4951" y="60.627" width="20.3659" height="14.6683" rx="1.5" stroke="black"/>
<rect x="50.7097" y="44.9585" width="20.3659" height="30.3366" rx="1.5" fill="#C2A94B" stroke="black"/>
<path d="M45.362 9.5C42.1925 7.2936 38.3401 6 34.1855 6C23.3688 6 14.6001 14.7687 14.6001 25.5854C14.6001 36.4021 23.3688 45.1707 34.1855 45.1707C45.0022 45.1707 53.7708 36.4021 53.7708 25.5854C53.7708 24.7089 53.7133 23.846 53.6017 23" stroke="black"/>
<path d="M48.3666 5.5C44.3594 2.66552 39.4668 1 34.1851 1C20.6072 1 9.6001 12.0071 9.6001 25.585C9.6001 39.1629 20.6072 50.17 34.1851 50.17C38.2652 50.17 42.1131 49.1761 45.5 47.4172M58.0112 19.5C58.5067 21.446 58.7701 23.4847 58.7701 25.585C58.7701 30.7502 57.1772 35.5433 54.456 39.5" stroke="black"/>
<path d="M33.8292 27.0098L24.5707 17.7512L19.2292 22.3805L33.8292 36.9805L59.8244 10.9854L54.839 6L33.8292 27.0098Z" fill="#C2A94B" stroke="black"/>
</svg>
