<svg width="69" height="73" viewBox="0 0 69 73" fill="none" xmlns="http://www.w3.org/2000/svg">
<path d="M8.75073 29.9561C9.49583 26.7472 10.7772 23.7438 12.495 21.0456L7.23349 14.9899L8.75073 29.9561ZM8.75073 29.9561L0.606739 30.3848L8.75073 29.9561ZM31.6541 0.5H36.3202V13.5931C23.897 13.859 13.9079 24.013 13.9079 36.5C13.9079 48.987 23.897 59.141 36.3202 59.4069V72.5H31.6541C31.6291 72.5 31.6064 72.4937 31.5861 72.4826C31.5448 72.4595 31.5174 72.4177 31.514 72.3695L30.9673 64.5785L30.9413 64.2074L30.5783 64.1257C27.367 63.4034 24.3622 62.1352 21.6659 60.4237L21.3456 60.2203L21.0635 60.4742L15.1093 65.8329L15.1092 65.833C15.0537 65.8829 14.969 65.8807 14.9163 65.828L14.9162 65.8279L7.61753 58.5293C7.56549 58.4773 7.56246 58.3938 7.61093 58.338L12.8724 52.2825L13.1172 52.0008L12.9167 51.686C11.1422 48.8989 9.84202 45.7807 9.12932 42.4449L9.05071 42.077L8.67537 42.0506L0.630492 41.486L0.630366 41.4859C0.557137 41.4808 0.5 41.4198 0.5 41.3459V31.0242C0.5 30.991 0.511056 30.9613 0.530154 30.9373L0.530247 30.9371C0.554956 30.906 0.591219 30.8863 0.63295 30.8841L0.633021 30.8841L8.77701 30.4554L9.15269 30.4356L9.23778 30.0692C9.96982 26.9164 11.2287 23.9655 12.9167 21.3141L13.1172 20.9993L12.8724 20.7177L7.61093 14.662L7.61073 14.6618C7.58725 14.6348 7.57598 14.6019 7.57661 14.5678L7.57661 14.5674C7.57724 14.5315 7.59094 14.4974 7.61753 14.4708L14.9162 7.17213C14.9689 7.11946 15.0538 7.11717 15.1093 7.16709C15.1093 7.16709 15.1093 7.1671 15.1093 7.1671L21.0635 12.526L21.3456 12.7798L21.6659 12.5764C24.3622 10.8649 27.367 9.59665 30.5783 8.87428L30.9413 8.79263L30.9673 8.42147L31.514 0.630482L31.5141 0.630363C31.5192 0.557136 31.5802 0.5 31.6541 0.5Z" stroke="black"/>
<path d="M21.3115 36.5C21.3115 28.102 27.9864 21.2631 36.3203 20.9991V52.0008C27.9864 51.7369 21.3115 44.8979 21.3115 36.5Z" fill="#C2A94B" stroke="black"/>
<path d="M36.8203 36.5H61.4738" stroke="black"/>
<circle cx="64.3553" cy="36.5001" r="3.34211" fill="#C2A94B" stroke="black"/>
<circle cx="59.2325" cy="22.4124" r="3.34211" fill="#C2A94B" stroke="black"/>
<circle cx="54.1097" cy="12.1666" r="3.34211" fill="#C2A94B" stroke="black"/>
<path d="M50.2675 12.1667H46.1053L41.3026 23.0527H36.5" stroke="black"/>
<path d="M55.7105 22.7324H48.9868L45.1447 30.0965H36.5" stroke="black"/>
<circle cx="3.84211" cy="3.84211" r="3.34211" transform="matrix(1 0 0 -1 55.3904 54.4297)" fill="#C2A94B" stroke="black"/>
<circle cx="3.84211" cy="3.84211" r="3.34211" transform="matrix(1 0 0 -1 50.2676 64.6755)" fill="#C2A94B" stroke="black"/>
<path d="M50.2675 60.8333H46.1053L41.3026 49.9473H36.5" stroke="black"/>
<path d="M55.7105 50.2676H48.9868L45.1447 42.9035H36.5" stroke="black"/>
</svg>
